<svg width="650" height="71" viewBox="0 0 650 71" fill="none" xmlns="http://www.w3.org/2000/svg">
<path d="M545.718 56.9482C544.546 56.9482 544 57.9808 544 58.6811C544 58.9906 544.104 59.7072 545.075 59.7072H625.959C627.131 59.7072 627.677 58.6746 627.677 57.9743C627.677 57.6648 627.573 56.9482 626.603 56.9482H545.718Z" fill="black"/>
<path d="M584.328 47.5051H555.682C554.537 47.5051 553.829 48.4726 553.829 49.3683C553.829 49.6387 553.917 50.5247 555.042 50.5247H583.688C584.833 50.5247 585.541 49.5573 585.541 48.6615C585.541 48.3911 585.453 47.5051 584.328 47.5051Z" fill="black"/>
<path d="M589.182 38.4302H568.439C567.293 38.4302 566.586 39.3976 566.586 40.2934C566.586 40.6224 566.687 40.9123 566.872 41.111C567.081 41.3357 567.394 41.4497 567.795 41.4497H588.538C589.684 41.4497 590.391 40.4823 590.391 39.5865C590.391 39.2576 590.29 38.9677 590.105 38.769C589.896 38.5442 589.583 38.4302 589.182 38.4302Z" fill="black"/>
<path d="M599.941 1L599.931 1.19218C599.506 1.19869 599.079 1.36809 598.725 1.66776C598.368 1.97069 598.135 2.36482 598.065 2.7785C598.001 3.16613 598.088 3.52445 598.317 3.7883L600.308 6.06192L602.299 8.33554L602.353 8.39744L602.397 8.51144L602.42 8.58311V8.70036L601.359 21.2314L600.298 33.7624C600.268 34.1207 600.274 34.4725 600.315 34.8145C600.355 35.1435 600.433 35.4692 600.537 35.7754L600.615 35.9969L600.45 36.1695L598.284 38.4269L596.118 40.6842C595.646 41.1761 595.296 41.7526 595.1 42.3487C594.908 42.9383 594.871 43.5442 594.993 44.1012C595.036 44.3032 595.1 44.4953 595.181 44.6745C595.262 44.8504 595.36 45.0165 595.478 45.1729L595.683 45.4465L595.434 45.6843C595.05 46.0491 594.706 46.453 594.417 46.8797C594.117 47.3227 593.874 47.7918 593.692 48.2771C593.15 49.7266 593.201 51.1892 593.834 52.3944C594.46 53.5866 595.585 54.3879 597 54.6517C597.33 54.7136 597.671 54.7429 598.014 54.7429C599.17 54.7429 600.355 54.4009 601.437 53.756C602.865 52.9058 603.949 51.6289 604.499 50.1599C604.627 49.8178 604.724 49.4661 604.785 49.1208C604.845 48.7853 604.872 48.4465 604.866 48.1175L604.859 47.6354L605.347 47.7266L613.752 49.2901L622.156 50.8537L622.813 50.9742L622.399 51.4791C622.16 51.769 621.944 52.0784 621.759 52.3944C621.57 52.7201 621.408 53.0589 621.277 53.4042C620.735 54.8537 620.785 56.3162 621.419 57.5214C622.045 58.7136 623.167 59.5149 624.585 59.7788C624.915 59.8407 625.255 59.87 625.599 59.87C626.754 59.87 627.94 59.528 629.021 58.883C630.45 58.0329 631.534 56.756 632.083 55.2869C632.245 54.857 632.353 54.4205 632.41 53.9905C632.464 53.5735 632.467 53.1599 632.423 52.7592L632.393 52.5019L632.626 52.3749C632.834 52.2609 633.03 52.1078 633.188 51.9319C633.353 51.7494 633.478 51.5442 633.562 51.3227C633.71 50.9286 633.697 50.5377 633.532 50.2217C633.373 49.9188 633.084 49.7136 632.717 49.6452L615.591 46.4628L598.466 43.2804L598.378 43.2641L598.26 43.1989C598.189 43.1501 598.095 43.0556 598.061 42.896L598.034 42.7689L598.095 42.5735C598.132 42.4953 598.179 42.4465 598.199 42.4237L600.194 40.3422L602.188 38.2608L602.397 38.0425L602.669 38.1761C602.861 38.2706 603.064 38.3552 603.276 38.4236C603.488 38.4953 603.707 38.5507 603.936 38.593C604.04 38.6126 604.148 38.6289 604.259 38.6419C604.371 38.6549 604.482 38.6647 604.593 38.6745L618.117 39.5507L631.642 40.4269C631.814 40.4367 631.982 40.4432 632.154 40.4432C633.626 40.4432 635.135 40.0393 636.52 39.2771C638.083 38.4139 639.383 37.1598 640.282 35.6516L644.739 28.1467L649.195 20.6418C649.317 20.4366 649.397 20.2118 649.428 19.9936C649.455 19.7819 649.438 19.5767 649.371 19.391C649.307 19.2118 649.205 19.0587 649.064 18.9382C648.922 18.8144 648.751 18.7297 648.555 18.6809L627.249 13.6613L605.944 8.64173L605.613 8.56355L605.536 8.21503C605.563 7.81764 605.519 7.43325 605.401 7.0782C605.287 6.7264 605.108 6.40721 604.872 6.13359L602.882 3.85994L600.891 1.58632C600.669 1.33225 600.332 1.19218 599.948 1.19218V1.00326C599.948 1.00326 599.944 1 599.941 1ZM624.204 53.8244C624.447 53.1794 624.922 52.6192 625.545 52.2478C626.023 51.9612 626.556 51.8113 627.074 51.8113C627.233 51.8113 627.391 51.8244 627.546 51.8537C628.23 51.9807 628.775 52.3716 629.082 52.9546C629.382 53.5247 629.409 54.2055 629.159 54.87C628.92 55.5149 628.442 56.0752 627.819 56.4465C627.34 56.7332 626.808 56.883 626.289 56.883C626.131 56.883 625.973 56.87 625.818 56.8407C625.134 56.7136 624.588 56.3228 624.282 55.7397C623.985 55.1697 623.955 54.4889 624.204 53.8244ZM599.49 46.6843C599.648 46.6843 599.806 46.6973 599.961 46.7266C600.645 46.8537 601.191 47.2445 601.497 47.8276C601.797 48.3976 601.824 49.0784 601.575 49.7429C601.332 50.3879 600.857 50.9481 600.234 51.3195C599.756 51.6061 599.223 51.756 598.705 51.756C598.546 51.756 598.388 51.7429 598.233 51.7136C597.549 51.5866 597.004 51.1957 596.697 50.6126C596.397 50.0426 596.37 49.3618 596.62 48.6973C596.862 48.0523 597.337 47.4921 597.96 47.1207C598.439 46.8341 598.967 46.6843 599.49 46.6843ZM626.913 36.8275L626.798 37.0751L626.519 37.0556L623.568 36.8634L620.617 36.6712L620.081 36.6354L620.263 36.1468L621.769 32.1109L623.275 28.0751L623.393 27.7591L623.733 27.821L626.889 28.4073L630.045 28.9936L630.551 29.0881L630.338 29.5409L628.624 33.1793L626.913 36.8275ZM639.622 31.3129L638.632 32.9774L637.641 34.6419C637.116 35.5246 636.355 36.2608 635.438 36.7657C634.62 37.2184 633.72 37.4562 632.841 37.4562C632.737 37.4562 632.636 37.453 632.531 37.4464L631.477 37.378L630.423 37.3096L629.837 37.2705L630.079 36.7559L631.689 33.3357L633.299 29.9155L633.431 29.6353L633.744 29.6939L636.54 30.2151L639.336 30.7363L639.895 30.8406L639.622 31.3129ZM638.086 19.7753L638.224 19.4789L638.551 19.5571L641.822 20.3291L645.092 21.1011L645.618 21.2249L645.348 21.6776L643.546 24.7102L641.744 27.7428L641.599 27.9838L641.316 27.9317L638.318 27.3747L635.32 26.8177L634.815 26.7233L635.027 26.2705L636.557 23.0229L638.086 19.7753ZM625.986 20.8209L627.313 17.2672L627.438 16.9349L627.792 17.0196L631.359 17.86L634.926 18.7004L635.401 18.8112L635.199 19.2411L633.629 22.5701L632.06 25.8991L631.928 26.1793L631.615 26.1206L628.29 25.5018L624.966 24.8829L624.501 24.7949L624.662 24.365L625.986 20.8209ZM614.564 22.5571L615.362 18.6288L616.16 14.7004L616.241 14.2997L616.652 14.3975L620.408 15.2835L624.164 16.1695L624.602 16.2737L624.447 16.6841L623.089 20.3226L621.732 23.961L621.614 24.277L621.274 24.2151L618.077 23.6223L614.88 23.0294L614.479 22.9545L614.564 22.5571ZM613.863 25.9969L614.26 26.0718L617.154 26.6092L620.048 27.1467L620.512 27.2347L620.351 27.6646L618.764 31.9155L617.178 36.1663L617.073 36.4432L616.77 36.4236L614.52 36.2771L612.27 36.1305L611.812 36.1012L611.899 35.6647L612.842 31.0197L613.786 26.3747L613.863 25.9969ZM604.482 20.7297L604.845 16.4496L605.209 12.1694L605.25 11.7134L605.711 11.8209L609.332 12.6743L612.953 13.5278L613.331 13.6157L613.257 13.9838L612.441 18.0001L611.626 22.0164L611.549 22.4008L611.151 22.3258L607.982 21.7363L604.812 21.1467L604.455 21.0815L604.482 20.7297ZM603.781 28.9839L604.148 24.632L604.185 24.1956L604.63 24.277L607.577 24.8242L610.525 25.3715L610.926 25.4464L610.848 25.8307L609.858 30.7005L608.867 35.5702L608.8 35.909L608.443 35.8862L606.964 35.7917L605.486 35.6972C604.856 35.6549 604.3 35.3943 603.919 34.9611C603.542 34.5279 603.36 33.9513 603.414 33.3389L603.781 28.9839Z" fill="black"/>
<path d="M6.96 56C6.56 56 6.24 55.88 6 55.64C5.76 55.4 5.64 55.08 5.64 54.68V15.38C5.64 14.98 5.76 14.66 6 14.42C6.24 14.14 6.56 14 6.96 14H30.36C30.8 14 31.14 14.12 31.38 14.36C31.62 14.6 31.74 14.94 31.74 15.38V16.28C31.74 16.68 31.6 17 31.32 17.24C31.08 17.48 30.76 17.6 30.36 17.6H9.42V32.9H29.04C29.48 32.9 29.82 33.02 30.06 33.26C30.3 33.5 30.42 33.84 30.42 34.28V35.18C30.42 35.58 30.28 35.9 30 36.14C29.76 36.38 29.44 36.5 29.04 36.5H9.42V52.4H30.84C31.28 52.4 31.62 52.52 31.86 52.76C32.1 53 32.22 53.34 32.22 53.78V54.68C32.22 55.08 32.08 55.4 31.8 55.64C31.56 55.88 31.24 56 30.84 56H6.96ZM45.4678 56C45.0678 56 44.7478 55.88 44.5078 55.64C44.2678 55.4 44.1478 55.08 44.1478 54.68V15.32C44.1478 14.92 44.2678 14.6 44.5078 14.36C44.7478 14.12 45.0678 14 45.4678 14H46.6078C47.0078 14 47.3278 14.12 47.5678 14.36C47.8078 14.6 47.9278 14.92 47.9278 15.32V52.4H68.6278C69.0678 52.4 69.4078 52.52 69.6478 52.76C69.8878 53 70.0078 53.34 70.0078 53.78V54.68C70.0078 55.08 69.8678 55.4 69.5878 55.64C69.3478 55.88 69.0278 56 68.6278 56H45.4678ZM81.3389 56C80.9389 56 80.6189 55.88 80.3789 55.64C80.1389 55.4 80.0189 55.08 80.0189 54.68V15.38C80.0189 14.98 80.1389 14.66 80.3789 14.42C80.6189 14.14 80.9389 14 81.3389 14H104.739C105.179 14 105.519 14.12 105.759 14.36C105.999 14.6 106.119 14.94 106.119 15.38V16.28C106.119 16.68 105.979 17 105.699 17.24C105.459 17.48 105.139 17.6 104.739 17.6H83.7989V32.9H103.419C103.859 32.9 104.199 33.02 104.439 33.26C104.679 33.5 104.799 33.84 104.799 34.28V35.18C104.799 35.58 104.659 35.9 104.379 36.14C104.139 36.38 103.819 36.5 103.419 36.5H83.7989V52.4H105.219C105.659 52.4 105.999 52.52 106.239 52.76C106.479 53 106.599 53.34 106.599 53.78V54.68C106.599 55.08 106.459 55.4 106.179 55.64C105.939 55.88 105.619 56 105.219 56H81.3389ZM129.027 56C128.627 56 128.307 55.88 128.067 55.64C127.827 55.4 127.707 55.08 127.707 54.68V17.6H115.827C115.427 17.6 115.107 17.48 114.867 17.24C114.627 17 114.507 16.68 114.507 16.28V15.38C114.507 14.98 114.627 14.66 114.867 14.42C115.107 14.14 115.427 14 115.827 14H143.307C143.747 14 144.087 14.12 144.327 14.36C144.567 14.6 144.687 14.94 144.687 15.38V16.28C144.687 16.68 144.547 17 144.267 17.24C144.027 17.48 143.707 17.6 143.307 17.6H131.487V54.68C131.487 55.08 131.347 55.4 131.067 55.64C130.827 55.88 130.507 56 130.107 56H129.027ZM156.245 56C155.845 56 155.525 55.88 155.285 55.64C155.045 55.4 154.925 55.08 154.925 54.68V15.38C154.925 14.98 155.045 14.66 155.285 14.42C155.525 14.14 155.845 14 156.245 14H170.225C174.545 14 177.925 15.02 180.365 17.06C182.805 19.1 184.025 22.12 184.025 26.12C184.025 29.28 183.245 31.84 181.685 33.8C180.125 35.72 177.885 37.02 174.965 37.7L184.625 54.14C184.745 54.38 184.805 54.6 184.805 54.8C184.805 55.12 184.685 55.4 184.445 55.64C184.205 55.88 183.925 56 183.605 56H182.885C182.285 56 181.825 55.88 181.505 55.64C181.225 55.36 180.925 54.94 180.605 54.38L171.065 38.24H158.705V54.68C158.705 55.08 158.565 55.4 158.285 55.64C158.045 55.88 157.725 56 157.325 56H156.245ZM169.925 34.64C173.405 34.64 175.985 33.94 177.665 32.54C179.385 31.1 180.245 28.96 180.245 26.12C180.245 23.28 179.385 21.16 177.665 19.76C175.985 18.32 173.405 17.6 169.925 17.6H158.705V34.64H169.925ZM210.524 56.6C200.244 56.6 194.964 51.08 194.684 40.04C194.644 38.84 194.624 37.16 194.624 35C194.624 32.84 194.644 31.16 194.684 29.96C194.844 24.52 196.324 20.4 199.124 17.6C201.924 14.8 205.724 13.4 210.524 13.4C215.324 13.4 219.124 14.8 221.924 17.6C224.724 20.4 226.204 24.52 226.364 29.96C226.444 32.36 226.484 34.04 226.484 35C226.484 35.96 226.444 37.64 226.364 40.04C226.084 51.08 220.804 56.6 210.524 56.6ZM210.524 53C214.124 53 216.984 51.92 219.104 49.76C221.264 47.56 222.424 44.22 222.584 39.74C222.664 37.34 222.704 35.76 222.704 35C222.704 34.24 222.664 32.66 222.584 30.26C222.424 25.78 221.264 22.46 219.104 20.3C216.944 18.1 214.084 17 210.524 17C206.964 17 204.104 18.1 201.944 20.3C199.784 22.46 198.624 25.78 198.464 30.26C198.424 31.46 198.404 33.04 198.404 35C198.404 36.96 198.424 38.54 198.464 39.74C198.624 44.22 199.764 47.56 201.884 49.76C204.044 51.92 206.924 53 210.524 53ZM240.351 56C239.951 56 239.631 55.88 239.391 55.64C239.151 55.4 239.031 55.08 239.031 54.68V15.38C239.031 14.98 239.151 14.66 239.391 14.42C239.631 14.14 239.951 14 240.351 14H241.611C242.131 14 242.551 14.24 242.871 14.72L265.011 48.56V15.38C265.011 14.98 265.131 14.66 265.371 14.42C265.611 14.14 265.931 14 266.331 14H267.411C267.851 14 268.191 14.12 268.431 14.36C268.671 14.6 268.791 14.94 268.791 15.38V54.62C268.791 55.02 268.671 55.36 268.431 55.64C268.191 55.88 267.871 56 267.471 56H266.151C265.631 56 265.211 55.76 264.891 55.28L242.811 21.56V54.68C242.811 55.08 242.671 55.4 242.391 55.64C242.151 55.88 241.831 56 241.431 56H240.351ZM284.366 56C283.966 56 283.646 55.88 283.406 55.64C283.166 55.4 283.046 55.08 283.046 54.68V15.32C283.046 14.92 283.166 14.6 283.406 14.36C283.646 14.12 283.966 14 284.366 14H285.506C285.906 14 286.226 14.12 286.466 14.36C286.706 14.6 286.826 14.92 286.826 15.32V54.68C286.826 55.08 286.706 55.4 286.466 55.64C286.226 55.88 285.906 56 285.506 56H284.366ZM315.325 56.6C310.125 56.6 306.225 55.14 303.625 52.22C301.025 49.26 299.625 45.3 299.425 40.34C299.385 39.26 299.365 37.5 299.365 35.06C299.365 32.58 299.385 30.78 299.425 29.66C299.625 24.7 301.025 20.76 303.625 17.84C306.225 14.88 310.125 13.4 315.325 13.4C318.885 13.4 321.845 14.06 324.205 15.38C326.565 16.66 328.305 18.3 329.425 20.3C330.585 22.26 331.225 24.28 331.345 26.36V26.48C331.345 26.8 331.225 27.06 330.985 27.26C330.745 27.46 330.445 27.56 330.085 27.56H328.885C328.165 27.56 327.725 27.14 327.565 26.3C326.805 22.9 325.425 20.5 323.425 19.1C321.425 17.7 318.725 17 315.325 17C311.565 17 308.645 18.06 306.565 20.18C304.485 22.3 303.365 25.56 303.205 29.96C303.165 31.04 303.145 32.7 303.145 34.94C303.145 37.18 303.165 38.88 303.205 40.04C303.365 44.44 304.485 47.7 306.565 49.82C308.645 51.94 311.565 53 315.325 53C318.725 53 321.425 52.3 323.425 50.9C325.425 49.5 326.805 47.1 327.565 43.7C327.725 42.86 328.165 42.44 328.885 42.44H330.085C330.445 42.44 330.745 42.56 330.985 42.8C331.265 43 331.385 43.28 331.345 43.64C331.225 45.72 330.585 47.76 329.425 49.76C328.305 51.72 326.565 53.36 324.205 54.68C321.845 55.96 318.885 56.6 315.325 56.6ZM355.787 56.6C352.667 56.6 349.947 56.1 347.627 55.1C345.347 54.06 343.587 52.72 342.347 51.08C341.147 49.44 340.507 47.68 340.427 45.8C340.427 45.48 340.547 45.2 340.787 44.96C341.027 44.72 341.327 44.6 341.687 44.6H342.887C343.607 44.6 344.047 45 344.207 45.8C344.487 47.72 345.587 49.4 347.507 50.84C349.427 52.28 352.187 53 355.787 53C359.587 53 362.407 52.32 364.247 50.96C366.127 49.56 367.067 47.62 367.067 45.14C367.067 43.62 366.607 42.38 365.687 41.42C364.807 40.42 363.507 39.56 361.787 38.84C360.067 38.08 357.467 37.14 353.987 36.02C350.907 35.02 348.487 34.04 346.727 33.08C345.007 32.12 343.727 30.94 342.887 29.54C342.047 28.14 341.627 26.36 341.627 24.2C341.627 22.16 342.167 20.32 343.247 18.68C344.367 17.04 345.967 15.76 348.047 14.84C350.127 13.88 352.607 13.4 355.487 13.4C358.447 13.4 360.987 13.94 363.107 15.02C365.227 16.06 366.827 17.4 367.907 19.04C368.987 20.64 369.567 22.26 369.647 23.9C369.647 24.22 369.527 24.5 369.287 24.74C369.087 24.98 368.787 25.1 368.387 25.1H367.187C366.907 25.1 366.627 25.02 366.347 24.86C366.067 24.66 365.907 24.34 365.867 23.9C365.627 21.9 364.547 20.26 362.627 18.98C360.747 17.66 358.367 17 355.487 17C352.407 17 349.947 17.6 348.107 18.8C346.307 20 345.407 21.8 345.407 24.2C345.407 25.76 345.807 27.06 346.607 28.1C347.447 29.1 348.687 29.98 350.327 30.74C351.967 31.46 354.387 32.34 357.587 33.38C360.867 34.42 363.427 35.42 365.267 36.38C367.107 37.34 368.487 38.5 369.407 39.86C370.367 41.22 370.847 42.98 370.847 45.14C370.847 48.74 369.507 51.56 366.827 53.6C364.147 55.6 360.467 56.6 355.787 56.6ZM392.546 56C392.146 56 391.826 55.88 391.586 55.64C391.346 55.4 391.226 55.08 391.226 54.68V17.6H379.346C378.946 17.6 378.626 17.48 378.386 17.24C378.146 17 378.026 16.68 378.026 16.28V15.38C378.026 14.98 378.146 14.66 378.386 14.42C378.626 14.14 378.946 14 379.346 14H406.826C407.266 14 407.606 14.12 407.846 14.36C408.086 14.6 408.206 14.94 408.206 15.38V16.28C408.206 16.68 408.066 17 407.786 17.24C407.546 17.48 407.226 17.6 406.826 17.6H395.006V54.68C395.006 55.08 394.866 55.4 394.586 55.64C394.346 55.88 394.026 56 393.626 56H392.546ZM431.669 56.6C421.389 56.6 416.109 51.08 415.829 40.04C415.789 38.84 415.769 37.16 415.769 35C415.769 32.84 415.789 31.16 415.829 29.96C415.989 24.52 417.469 20.4 420.269 17.6C423.069 14.8 426.869 13.4 431.669 13.4C436.469 13.4 440.269 14.8 443.069 17.6C445.869 20.4 447.349 24.52 447.509 29.96C447.589 32.36 447.629 34.04 447.629 35C447.629 35.96 447.589 37.64 447.509 40.04C447.229 51.08 441.949 56.6 431.669 56.6ZM431.669 53C435.269 53 438.129 51.92 440.249 49.76C442.409 47.56 443.569 44.22 443.729 39.74C443.809 37.34 443.849 35.76 443.849 35C443.849 34.24 443.809 32.66 443.729 30.26C443.569 25.78 442.409 22.46 440.249 20.3C438.089 18.1 435.229 17 431.669 17C428.109 17 425.249 18.1 423.089 20.3C420.929 22.46 419.769 25.78 419.609 30.26C419.569 31.46 419.549 33.04 419.549 35C419.549 36.96 419.569 38.54 419.609 39.74C419.769 44.22 420.909 47.56 423.029 49.76C425.189 51.92 428.069 53 431.669 53ZM461.495 56C461.095 56 460.775 55.88 460.535 55.64C460.295 55.4 460.175 55.08 460.175 54.68V15.38C460.175 14.98 460.295 14.66 460.535 14.42C460.775 14.14 461.095 14 461.495 14H475.475C479.795 14 483.175 15.02 485.615 17.06C488.055 19.1 489.275 22.12 489.275 26.12C489.275 29.28 488.495 31.84 486.935 33.8C485.375 35.72 483.135 37.02 480.215 37.7L489.875 54.14C489.995 54.38 490.055 54.6 490.055 54.8C490.055 55.12 489.935 55.4 489.695 55.64C489.455 55.88 489.175 56 488.855 56H488.135C487.535 56 487.075 55.88 486.755 55.64C486.475 55.36 486.175 54.94 485.855 54.38L476.315 38.24H463.955V54.68C463.955 55.08 463.815 55.4 463.535 55.64C463.295 55.88 462.975 56 462.575 56H461.495ZM475.175 34.64C478.655 34.64 481.235 33.94 482.915 32.54C484.635 31.1 485.495 28.96 485.495 26.12C485.495 23.28 484.635 21.16 482.915 19.76C481.235 18.32 478.655 17.6 475.175 17.6H463.955V34.64H475.175ZM502.874 56C502.474 56 502.154 55.88 501.914 55.64C501.674 55.4 501.554 55.08 501.554 54.68V15.38C501.554 14.98 501.674 14.66 501.914 14.42C502.154 14.14 502.474 14 502.874 14H526.274C526.714 14 527.054 14.12 527.294 14.36C527.534 14.6 527.654 14.94 527.654 15.38V16.28C527.654 16.68 527.514 17 527.234 17.24C526.994 17.48 526.674 17.6 526.274 17.6H505.334V32.9H524.954C525.394 32.9 525.734 33.02 525.974 33.26C526.214 33.5 526.334 33.84 526.334 34.28V35.18C526.334 35.58 526.194 35.9 525.914 36.14C525.674 36.38 525.354 36.5 524.954 36.5H505.334V52.4H526.754C527.194 52.4 527.534 52.52 527.774 52.76C528.014 53 528.134 53.34 528.134 53.78V54.68C528.134 55.08 527.994 55.4 527.714 55.64C527.474 55.88 527.154 56 526.754 56H502.874Z" fill="black"/>
</svg>
